<svg width="179" height="51" viewBox="0 0 179 51" fill="none" xmlns="http://www.w3.org/2000/svg">
<path d="M24 51C19.2533 51 14.6131 49.5924 10.6663 46.9553C6.71954 44.3181 3.64341 40.5698 1.8269 36.1844C0.0103989 31.799 -0.464881 26.9734 0.461164 22.3178C1.38721 17.6623 3.67299 13.3859 7.02945 10.0294C10.3859 6.67299 14.6623 4.38721 19.3178 3.46116C23.9734 2.53512 28.799 3.0104 33.1844 4.8269C37.5698 6.64341 41.3181 9.71954 43.9553 13.6663C46.5924 17.6131 48 22.2533 48 27C48 33.3652 45.4714 39.4697 40.9706 43.9706C36.4697 48.4714 30.3652 51 24 51ZM24 5.00001C19.6488 5.00001 15.3953 6.29029 11.7775 8.70768C8.15958 11.1251 5.33979 14.561 3.67466 18.581C2.00953 22.6009 1.57386 27.0244 2.42273 31.292C3.27161 35.5596 5.36691 39.4796 8.44366 42.5564C11.5204 45.6331 15.4404 47.7284 19.708 48.5773C23.9756 49.4262 28.3991 48.9905 32.419 47.3254C36.439 45.6602 39.875 42.8404 42.2923 39.2226C44.7097 35.6047 46 31.3512 46 27C46 21.1652 43.6822 15.5695 39.5564 11.4437C35.4306 7.31786 29.8348 5.00001 24 5.00001Z" fill="#0045E6"/>
<path d="M24 51C16.15 51 10 40.46 10 27C10 13.54 16.15 3 24 3C31.85 3 38 13.54 38 27C38 40.46 31.85 51 24 51ZM24 5C17.38 5 12 14.87 12 27C12 39.13 17.38 49 24 49C30.62 49 36 39.13 36 27C36 14.87 30.62 5 24 5Z" fill="#0045E6"/>
<path d="M25 7H23V50H25V7Z" fill="#0045E6"/>
<path d="M34 26H1V28H34V26Z" fill="#0045E6"/>
<path d="M47 26H37V28H47V26Z" fill="#0045E6"/>
<path d="M44 15H7V17H44V15Z" fill="#0045E6"/>
<path d="M12 37H4V39H12V37Z" fill="#0045E6"/>
<path d="M44 37H16V39H44V37Z" fill="#0045E6"/>
<path d="M54.5994 22.4148V43.6364H52V10.9091H54.5355V16.0867H54.7912C55.5582 14.3963 56.7869 13.0398 58.4773 12.0171C60.1676 10.9944 62.1776 10.483 64.5071 10.483C66.7088 10.483 68.6407 10.9517 70.3026 11.8892C71.9787 12.8267 73.2855 14.162 74.223 15.8949C75.1747 17.6137 75.6506 19.6662 75.6506 22.0526V43.6364H73.0512V22.1591C73.0512 19.375 72.2202 17.1378 70.5583 15.4475C68.9105 13.7429 66.7301 12.8907 64.0171 12.8907C62.1989 12.8907 60.5795 13.2884 59.1591 14.0838C57.7386 14.8793 56.6236 15.9944 55.8139 17.429C55.0043 18.8495 54.5994 20.5114 54.5994 22.4148ZM93.8159 44.3182C90.8614 44.3182 88.2904 43.5867 86.1029 42.1236C83.9154 40.6605 82.225 38.6577 81.0318 36.1151C79.8387 33.5725 79.2421 30.6748 79.2421 27.4219C79.2421 24.1549 79.8387 21.2429 81.0318 18.6861C82.2392 16.1293 83.8941 14.1123 85.9963 12.635C88.0986 11.1577 90.4992 10.4191 93.198 10.4191C95.0304 10.4191 96.7634 10.7884 98.3969 11.527C100.045 12.2515 101.493 13.3026 102.743 14.6804C104.008 16.0583 104.995 17.7202 105.705 19.6662C106.43 21.6123 106.792 23.7998 106.792 26.2287V27.848H80.8827V25.483H104.192C104.192 23.1108 103.709 20.973 102.743 19.0696C101.778 17.1662 100.464 15.6534 98.8017 14.5313C97.1398 13.4091 95.2719 12.848 93.198 12.848C91.0247 12.848 89.0858 13.4588 87.3813 14.6804C85.6909 15.8878 84.3486 17.5213 83.3543 19.581C82.3742 21.6407 81.8628 23.9418 81.8202 26.4844V27.5498C81.8202 30.277 82.296 32.7273 83.2478 34.9006C84.2137 37.0597 85.5915 38.7713 87.3813 40.0355C89.171 41.2855 91.3159 41.9105 93.8159 41.9105C95.6057 41.9105 97.1327 41.6123 98.3969 41.0157C99.6753 40.4049 100.719 39.6662 101.529 38.7998C102.339 37.9333 102.949 37.0952 103.361 36.2855L105.726 37.2444C105.229 38.3381 104.455 39.4319 103.404 40.5256C102.367 41.6051 101.046 42.5071 99.4409 43.2316C97.85 43.956 95.975 44.3182 93.8159 44.3182ZM121.91 10.9091V13.2316H107.613V10.9091H121.91ZM112.45 3.06818H115.028V35.902C115.028 37.2373 115.284 38.331 115.795 39.1833C116.321 40.0213 117.003 40.6463 117.841 41.0583C118.693 41.456 119.602 41.6549 120.568 41.6549C121.037 41.6549 121.441 41.6194 121.782 41.5483C122.137 41.4773 122.471 41.385 122.784 41.2713L123.423 43.6364C123.025 43.7784 122.585 43.8992 122.102 43.9986C121.619 44.1123 121.051 44.1691 120.397 44.1691C119.034 44.1691 117.741 43.8637 116.52 43.2529C115.312 42.6421 114.332 41.7543 113.579 40.5895C112.826 39.4248 112.45 38.0185 112.45 36.3708V3.06818ZM138.563 44.3182C135.608 44.3182 133.037 43.5867 130.85 42.1236C128.662 40.6605 126.972 38.6577 125.779 36.1151C124.585 33.5725 123.989 30.6748 123.989 27.4219C123.989 24.1549 124.585 21.2429 125.779 18.6861C126.986 16.1293 128.641 14.1123 130.743 12.635C132.845 11.1577 135.246 10.4191 137.945 10.4191C139.777 10.4191 141.51 10.7884 143.144 11.527C144.791 12.2515 146.24 13.3026 147.49 14.6804C148.755 16.0583 149.742 17.7202 150.452 19.6662C151.176 21.6123 151.539 23.7998 151.539 26.2287V27.848H125.63V25.483H148.939C148.939 23.1108 148.456 20.973 147.49 19.0696C146.524 17.1662 145.21 15.6534 143.549 14.5313C141.887 13.4091 140.019 12.848 137.945 12.848C135.772 12.848 133.833 13.4588 132.128 14.6804C130.438 15.8878 129.095 17.5213 128.101 19.581C127.121 21.6407 126.61 23.9418 126.567 26.4844V27.5498C126.567 30.277 127.043 32.7273 127.995 34.9006C128.96 37.0597 130.338 38.7713 132.128 40.0355C133.918 41.2855 136.063 41.9105 138.563 41.9105C140.353 41.9105 141.88 41.6123 143.144 41.0157C144.422 40.4049 145.466 39.6662 146.276 38.7998C147.085 37.9333 147.696 37.0952 148.108 36.2855L150.473 37.2444C149.976 38.3381 149.202 39.4319 148.151 40.5256C147.114 41.6051 145.793 42.5071 144.188 43.2316C142.597 43.956 140.722 44.3182 138.563 44.3182ZM157.346 30.8523L157.303 27.1236H157.985L174.348 10.9091H177.736L162.715 25.8239L162.459 25.9304L157.346 30.8523ZM155.087 43.6364V0H157.687V43.6364H155.087ZM175.094 43.6364L161.287 26.1861L163.162 24.4603L178.418 43.6364H175.094Z" fill="#0045E6"/>
</svg>
