<svg width="48" height="48" viewBox="0 0 48 48" fill="none" xmlns="http://www.w3.org/2000/svg">
<path d="M24 48C19.2533 48 14.6131 46.5924 10.6663 43.9553C6.71954 41.3181 3.64341 37.5698 1.8269 33.1844C0.0103989 28.799 -0.464881 23.9734 0.461164 19.3178C1.38721 14.6623 3.67299 10.3859 7.02945 7.02945C10.3859 3.67299 14.6623 1.38721 19.3178 0.461164C23.9734 -0.464881 28.799 0.0103989 33.1844 1.8269C37.5698 3.64341 41.3181 6.71954 43.9553 10.6663C46.5924 14.6131 48 19.2533 48 24C48 30.3652 45.4714 36.4697 40.9706 40.9706C36.4697 45.4714 30.3652 48 24 48ZM24 2.00001C19.6488 2.00001 15.3953 3.29029 11.7775 5.70768C8.15958 8.12507 5.33979 11.561 3.67466 15.581C2.00953 19.6009 1.57386 24.0244 2.42273 28.292C3.27161 32.5596 5.36691 36.4796 8.44366 39.5564C11.5204 42.6331 15.4404 44.7284 19.708 45.5773C23.9756 46.4262 28.3991 45.9905 32.419 44.3254C36.439 42.6602 39.875 39.8404 42.2923 36.2226C44.7097 32.6047 46 28.3512 46 24C46 18.1652 43.6822 12.5695 39.5564 8.44366C35.4306 4.31786 29.8348 2.00001 24 2.00001Z" fill="#0045E6"/>
<path d="M24 48C16.15 48 10 37.46 10 24C10 10.54 16.15 0 24 0C31.85 0 38 10.54 38 24C38 37.46 31.85 48 24 48ZM24 2C17.38 2 12 11.87 12 24C12 36.13 17.38 46 24 46C30.62 46 36 36.13 36 24C36 11.87 30.62 2 24 2Z" fill="#0045E6"/>
<path d="M25 4H23V47H25V4Z" fill="#0045E6"/>
<path d="M34 23H1V25H34V23Z" fill="#0045E6"/>
<path d="M47 23H37V25H47V23Z" fill="#0045E6"/>
<path d="M44 12H7V14H44V12Z" fill="#0045E6"/>
<path d="M12 34H4V36H12V34Z" fill="#0045E6"/>
<path d="M44 34H16V36H44V34Z" fill="#0045E6"/>
</svg>
